<?xml version="1.0" encoding="utf-8"?>
<!-- Generator: Adobe Illustrator 20.0.0, SVG Export Plug-In . SVG Version: 6.00 Build 0)  -->
<svg version="1.1" id="Camada_1" xmlns="http://www.w3.org/2000/svg" xmlns:xlink="http://www.w3.org/1999/xlink" x="0px" y="0px"
	 viewBox="0 0 512 512" style="enable-background:new 0 0 512 512;" xml:space="preserve">
<style type="text/css">
	.st0{fill:#1B33AA;}
	.st1{fill:#49BED3;}
	.st2{fill:#09B3B2;}
	.st3{fill:#EBA32F;}
	.st4{fill:#E09214;}
	.st5{fill:#FFEDB5;}
	.st6{fill:#FEE187;}
	.st7{fill:#FDC61F;}
</style>
<path class="st0" d="M339.3,512H172.7C77.3,512,0,434.7,0,339.3V172.7C0,77.3,77.3,0,172.7,0h166.5C434.7,0,512,77.3,512,172.7
	v166.5C512,434.7,434.7,512,339.3,512z"/>
<g>
	<path class="st1" d="M437.7,354.8c22.8,0,41.1-18.5,41.1-41.1c0-22.8-18.5-41.1-41.1-41.1c-0.5,0-0.8,0-1.2,0
		c-7.1-20-25.9-34.3-48.2-34.3c-26.5,0-48.4,20.3-50.9,46.2c-19.1,0.3-34.6,16-34.6,35.1c0,19.5,15.8,35.1,35.1,35.1L437.7,354.8
		L437.7,354.8L437.7,354.8z"/>
	<path class="st2" d="M437.7,272.4c-0.5,0-0.8,0-1.2,0c-7.1-20-25.9-34.3-48.2-34.3c-0.3,0-0.7,0-0.8,0v116.5h50.4
		c22.8,0,41.1-18.5,41.1-41.1C478.8,290.9,460.3,272.4,437.7,272.4z"/>
	<path class="st1" d="M184.5,296.6c22.8,0,41.1-18.5,41.1-41.1c0-22.8-18.5-41.1-41.1-41.1c-0.5,0-0.8,0-1.2,0
		c-7.1-20-25.9-34.3-48.2-34.3c-26.5,0-48.4,20.3-50.9,46.2c-19.1,0.3-34.6,16-34.6,35.1c0,19.5,15.8,35.1,35.1,35.1L184.5,296.6
		L184.5,296.6L184.5,296.6z"/>
	<path class="st2" d="M184.5,214.1c-0.5,0-0.8,0-1.2,0c-6.9-19.6-25.4-33.7-47.3-34.1v116.5h48.5c22.8,0,41.1-18.5,41.1-41.1
		C225.8,232.6,207.3,214.1,184.5,214.1z"/>
	<polygon class="st3" points="161.7,315 257.2,407.4 350,315 	"/>
	<polygon class="st4" points="257.2,315 257.2,407.4 350,315 	"/>
	<polygon class="st5" points="257.2,119.9 120.4,331 242.2,331 	"/>
	<polygon class="st6" points="257.2,119.9 394,331 272.3,331 	"/>
	<polygon class="st7" points="257.2,407.4 285.6,331 257.2,119.9 229,331 	"/>
	<polygon class="st3" points="257.2,119.9 257.2,407.4 285.6,331 	"/>
</g>
</svg>
