<?xml version="1.0" encoding="utf-8"?>
<!-- Generator: Adobe Illustrator 20.0.0, SVG Export Plug-In . SVG Version: 6.00 Build 0)  -->
<svg version="1.1" id="Camada_1" xmlns="http://www.w3.org/2000/svg" xmlns:xlink="http://www.w3.org/1999/xlink" x="0px" y="0px"
	 viewBox="0 0 500 500" style="enable-background:new 0 0 500 500;" xml:space="preserve">
<style type="text/css">
	.st0{fill:#49BED3;}
	.st1{fill:#09B3B2;}
	.st2{fill:#EBA32F;}
	.st3{fill:#E09214;}
	.st4{fill:#FFEDB5;}
	.st5{fill:#FEE187;}
	.st6{fill:#FDC61F;}
</style>
<g>
	<path class="st0" d="M343,209.7c13.6,0,24.5-11,24.5-24.5c0-13.6-11-24.5-24.5-24.5c-0.3,0-0.5,0-0.7,0
		c-4.2-11.9-15.4-20.4-28.7-20.4c-15.8,0-28.8,12.1-30.3,27.5c-11.4,0.2-20.6,9.5-20.6,20.9c0,11.6,9.4,20.9,20.9,20.9L343,209.7
		L343,209.7L343,209.7z"/>
	<path class="st1" d="M343,160.6c-0.3,0-0.5,0-0.7,0c-4.2-11.9-15.4-20.4-28.7-20.4c-0.2,0-0.4,0-0.5,0v69.4h30
		c13.6,0,24.5-11,24.5-24.5C367.5,171.6,356.5,160.6,343,160.6z"/>
	<path class="st0" d="M192.2,175c13.6,0,24.5-11,24.5-24.5c0-13.6-11-24.5-24.5-24.5c-0.3,0-0.5,0-0.7,0
		c-4.2-11.9-15.4-20.4-28.7-20.4c-15.8,0-28.8,12.1-30.3,27.5c-11.4,0.2-20.6,9.5-20.6,20.9c0,11.6,9.4,20.9,20.9,20.9L192.2,175
		L192.2,175L192.2,175z"/>
	<path class="st1" d="M192.2,125.9c-0.3,0-0.5,0-0.7,0c-4.1-11.7-15.1-20.1-28.2-20.3V175h28.9c13.6,0,24.5-11,24.5-24.5
		C216.8,136.9,205.8,125.9,192.2,125.9z"/>
	<polygon class="st2" points="178.6,186 235.5,241 290.8,186 	"/>
	<polygon class="st3" points="235.5,186 235.5,241 290.8,186 	"/>
	<polygon class="st4" points="235.5,69.8 154,195.5 226.6,195.5 	"/>
	<polygon class="st5" points="235.5,69.8 317,195.5 244.5,195.5 	"/>
	<polygon class="st6" points="235.5,241 252.4,195.5 235.5,69.8 218.7,195.5 	"/>
	<polygon class="st2" points="235.5,69.8 235.5,241 252.4,195.5 	"/>
</g>
<g>
	<g>
		<path class="st5" d="M240.3,299.9v-16.1h71.4v16.1h-26.1v71h-19.2v-71H240.3z"/>
		<path class="st5" d="M325.1,307.8v11.7h0.2c0.8-2,1.9-3.8,3.3-5.4c1.4-1.7,3-3.1,4.8-4.3c1.8-1.2,3.7-2.1,5.7-2.7
			c2-0.7,4.1-1,6.3-1c1.1,0,2.4,0.2,3.8,0.6v16.1c-0.8-0.2-1.8-0.3-2.9-0.4c-1.1-0.1-2.2-0.2-3.3-0.2c-3.2,0-5.9,0.5-8.1,1.6
			c-2.2,1.1-4,2.5-5.3,4.3c-1.3,1.8-2.3,4-2.9,6.4c-0.6,2.4-0.9,5.1-0.9,7.9v28.4h-17.3v-63.1H325.1z"/>
		<path class="st5" d="M356.6,298v-14.3h17.3V298H356.6z M373.9,307.8v63.1h-17.3v-63.1H373.9z"/>
		<path class="st5" d="M404.1,307.8v8.1h0.2c2.1-3.4,4.8-5.9,8.1-7.4c3.3-1.5,6.8-2.3,10.7-2.3c5,0,9.2,0.9,12.8,2.8
			c3.6,1.9,6.5,4.4,8.9,7.4c2.4,3.1,4.1,6.7,5.2,10.8c1.1,4.1,1.7,8.4,1.7,12.9c0,4.2-0.6,8.3-1.7,12.2c-1.1,3.9-2.9,7.4-5.2,10.4
			c-2.3,3-5.2,5.4-8.7,7.2c-3.5,1.8-7.5,2.7-12.1,2.7c-3.9,0-7.5-0.8-10.8-2.4c-3.3-1.6-6-3.9-8.1-7h-0.2V393h-17.3v-85.2H404.1z
			 M426.6,357.8c1.9-1.1,3.5-2.6,4.6-4.5c1.2-1.8,2-4,2.5-6.4s0.7-4.9,0.7-7.4c0-2.5-0.3-5-0.8-7.4c-0.5-2.4-1.4-4.6-2.6-6.5
			c-1.2-1.9-2.8-3.5-4.7-4.6c-1.9-1.2-4.3-1.8-7-1.8c-2.8,0-5.2,0.6-7.1,1.8c-1.9,1.2-3.5,2.7-4.6,4.6c-1.2,1.9-2,4-2.5,6.5
			s-0.7,5-0.7,7.6c0,2.5,0.3,5,0.8,7.4c0.5,2.4,1.4,4.6,2.6,6.4c1.2,1.8,2.7,3.3,4.7,4.5c2,1.1,4.3,1.7,7.1,1.7
			C422.3,359.5,424.7,359,426.6,357.8z"/>
	</g>
	<g>
		<path class="st1" d="M49.8,334.6c0.2-3.5,1.1-6.4,2.6-8.7c1.5-2.3,3.5-4.1,5.9-5.5c2.4-1.4,5-2.4,8-3c3-0.6,5.9-0.9,8.9-0.9
			c2.7,0,5.5,0.2,8.3,0.6c2.8,0.4,5.3,1.1,7.6,2.2c2.3,1.1,4.2,2.7,5.7,4.7s2.2,4.6,2.2,7.9v28.1c0,2.4,0.1,4.8,0.4,7
			c0.3,2.2,0.8,3.9,1.5,5H85.8c-0.3-0.8-0.5-1.7-0.7-2.6c-0.2-0.9-0.3-1.8-0.4-2.7c-2.4,2.4-5.2,4.2-8.4,5.1c-3.2,1-6.5,1.5-9.8,1.5
			c-2.6,0-5-0.3-7.2-0.9c-2.2-0.6-4.2-1.6-5.9-2.9c-1.7-1.3-3-3-3.9-5c-0.9-2-1.4-4.4-1.4-7.2c0-3.1,0.5-5.6,1.6-7.6
			c1.1-2,2.5-3.6,4.2-4.8c1.7-1.2,3.7-2.1,5.9-2.7c2.2-0.6,4.4-1.1,6.6-1.4c2.2-0.3,4.4-0.6,6.6-0.8c2.2-0.2,4.1-0.5,5.8-0.9
			c1.7-0.4,3-1,4-1.8c1-0.8,1.4-2,1.4-3.5c0-1.6-0.3-2.9-0.8-3.8c-0.5-0.9-1.2-1.7-2.1-2.2c-0.9-0.5-1.9-0.9-3-1
			c-1.2-0.2-2.4-0.3-3.7-0.3c-2.9,0-5.2,0.6-6.9,1.9c-1.7,1.3-2.7,3.3-2.9,6.3H49.8z M84.1,345.6c-0.6,0.6-1.4,1-2.4,1.3
			c-0.9,0.3-2,0.6-3,0.8c-1.1,0.2-2.2,0.4-3.4,0.5c-1.2,0.1-2.4,0.3-3.6,0.5c-1.1,0.2-2.2,0.5-3.3,0.8c-1.1,0.4-2,0.8-2.8,1.4
			c-0.8,0.6-1.4,1.3-1.9,2.2c-0.5,0.9-0.7,2.1-0.7,3.5c0,1.3,0.2,2.4,0.7,3.3c0.5,0.9,1.2,1.6,2,2.1c0.8,0.5,1.8,0.9,2.9,1.1
			c1.1,0.2,2.3,0.3,3.5,0.3c2.9,0,5.2-0.5,6.8-1.5c1.6-1,2.8-2.1,3.6-3.5c0.8-1.4,1.2-2.7,1.4-4.1c0.2-1.4,0.3-2.5,0.3-3.3V345.6z"
			/>
		<path class="st1" d="M124.9,318v7.3h0.2c2-2.8,4.3-5,7.1-6.5c2.8-1.5,5.9-2.3,9.5-2.3c3.4,0,6.5,0.7,9.4,2c2.8,1.3,5,3.7,6.4,7
			c1.6-2.4,3.8-4.5,6.5-6.3c2.8-1.8,6-2.7,9.8-2.7c2.9,0,5.5,0.4,8,1c2.4,0.7,4.5,1.8,6.3,3.3c1.7,1.5,3.1,3.5,4.1,6
			c1,2.5,1.5,5.5,1.5,8.9v36.2h-14.9v-30.7c0-1.8-0.1-3.5-0.2-5.1c-0.1-1.6-0.5-3-1.2-4.2c-0.6-1.2-1.6-2.1-2.8-2.8
			c-1.2-0.7-2.9-1-5-1s-3.8,0.4-5.1,1.2c-1.3,0.8-2.3,1.8-3,3.1c-0.7,1.3-1.2,2.8-1.5,4.4c-0.2,1.6-0.4,3.3-0.4,5v30.1h-14.9v-30.3
			c0-1.6,0-3.2-0.1-4.8c-0.1-1.6-0.4-3-0.9-4.3c-0.5-1.3-1.4-2.4-2.6-3.2c-1.2-0.8-3-1.2-5.4-1.2c-0.7,0-1.6,0.2-2.8,0.5
			c-1.2,0.3-2.3,0.9-3.3,1.8c-1.1,0.9-2,2.1-2.8,3.8c-0.8,1.6-1.2,3.8-1.2,6.4v31.4h-14.9V318H124.9z"/>
		<path class="st1" d="M230.1,329.2H204V318h45.6v11.2l-28.1,31.7h30.1v11.2h-49.7v-11.2L230.1,329.2z"/>
	</g>
</g>
</svg>
