<?xml version="1.0" encoding="utf-8"?>
<!-- Generator: Adobe Illustrator 20.0.0, SVG Export Plug-In . SVG Version: 6.00 Build 0)  -->
<svg version="1.1" id="Layer_1" xmlns="http://www.w3.org/2000/svg" xmlns:xlink="http://www.w3.org/1999/xlink" x="0px" y="0px"
	 viewBox="0 0 823.1 823.1" style="enable-background:new 0 0 823.1 823.1;" xml:space="preserve">
<style type="text/css">
	.st0{fill:#273B7A;}
	.st1{opacity:0.4;fill:url(#SVGID_1_);}
	.st2{fill:#38C6D9;}
	.st3{fill:#02B2B2;}
	.st4{fill:#EAA22F;}
	.st5{fill:#E09112;}
	.st6{fill:#FFEDB5;}
	.st7{fill:#FEE187;}
	.st8{fill:#FFC61B;}
	.st9{opacity:0.2;fill:url(#SVGID_2_);}
	.st10{opacity:0.2;fill:url(#SVGID_3_);}
	.st11{font-family:'HelveticaNeue-Bold';}
	.st12{font-size:200px;}
	.st13{font-size:171.5038px;}
	.st14{opacity:0.2;fill:url(#SVGID_4_);}
</style>
<circle class="st0" cx="-1341.5" cy="256" r="256"/>
<linearGradient id="SVGID_1_" gradientUnits="userSpaceOnUse" x1="-1205.9873" y1="392.8946" x2="-1088.3053" y2="510.5766">
	<stop  offset="0.3779" style="stop-color:#000000"/>
	<stop  offset="1" style="stop-color:#000000;stop-opacity:0"/>
</linearGradient>
<path class="st1" d="M-1536.2,261.9l245.2,245.2c100.2-20,179.2-98.4,200.2-198.3l-44.2-44.2l-7,4l-36.5-36.7l-19.8,13.2
	L-1341.5,102l-45.7,111.6L-1536.2,261.9z"/>
<path class="st2" d="M-1165.3,331.3c22.2,0,40.2-18,40.2-40.2s-18-40.2-40.2-40.2c-0.4,0-0.8,0-1.2,0c-6.8-19.4-25.3-33.4-47-33.4
	c-25.9,0-47.2,19.8-49.6,45.1c-18.7,0.3-33.7,15.6-33.7,34.3c0,19,15.4,34.3,34.3,34.3L-1165.3,331.3L-1165.3,331.3L-1165.3,331.3z"
	/>
<path class="st3" d="M-1165.3,250.9c-0.4,0-0.8,0-1.2,0c-6.8-19.4-25.3-33.4-47-33.4c-0.3,0-0.6,0-0.9,0v113.8h49.1
	c22.2,0,40.2-18,40.2-40.2C-1125.1,268.9-1143.1,250.9-1165.3,250.9z"/>
<path class="st2" d="M-1412.4,274.4c22.2,0,40.2-18,40.2-40.2s-18-40.2-40.2-40.2c-0.4,0-0.8,0-1.2,0c-6.8-19.4-25.3-33.4-47-33.4
	c-25.9,0-47.2,19.8-49.6,45.1c-18.7,0.3-33.7,15.5-33.7,34.3c0,19,15.4,34.3,34.3,34.3L-1412.4,274.4L-1412.4,274.4L-1412.4,274.4z"
	/>
<path class="st3" d="M-1412.4,194c-0.4,0-0.8,0-1.2,0c-6.7-19.2-24.8-33-46.2-33.3v113.7h47.4c22.2,0,40.2-18,40.2-40.2
	S-1390.2,194-1412.4,194z"/>
<polygon class="st4" points="-1434.8,292.5 -1341.5,382.7 -1250.9,292.5 "/>
<polygon class="st5" points="-1341.5,292.5 -1341.5,382.7 -1250.9,292.5 "/>
<polygon class="st6" points="-1341.5,102 -1475.1,308 -1356.1,308 "/>
<polygon class="st7" points="-1341.5,102 -1207.9,308 -1326.8,308 "/>
<polygon class="st8" points="-1341.5,382.7 -1313.9,308 -1341.5,102 -1369,308 "/>
<polygon class="st4" points="-1341.5,102 -1341.5,382.7 -1313.9,308 "/>
<rect x="-966.6" class="st0" width="823.1" height="823.1"/>
<g>
	<linearGradient id="SVGID_2_" gradientUnits="userSpaceOnUse" x1="-447.2762" y1="425.0072" x2="-269.4865" y2="602.7969">
		<stop  offset="0.3779" style="stop-color:#000000"/>
		<stop  offset="1" style="stop-color:#000000;stop-opacity:0"/>
	</linearGradient>
	<path class="st9" d="M-773.9,297.6l428.1,428.1c100.2-20,179.2-98.4,200.2-198.3l-227.1-227.1l-7,4l-36.5-36.7l-19.8,13.2
		l-143.1-143.1l-45.7,111.6L-773.9,297.6z"/>
	<path class="st2" d="M-402.9,367.1c22.2,0,40.2-18,40.2-40.2s-18-40.2-40.2-40.2c-0.4,0-0.8,0-1.2,0c-6.8-19.4-25.3-33.4-47-33.4
		c-25.9,0-47.2,19.8-49.6,45.1c-18.7,0.3-33.7,15.6-33.7,34.3c0,19,15.4,34.3,34.3,34.3L-402.9,367.1L-402.9,367.1L-402.9,367.1z"/>
	<path class="st3" d="M-402.9,286.7c-0.4,0-0.8,0-1.2,0c-6.8-19.4-25.3-33.4-47-33.4c-0.3,0-0.6,0-0.9,0v113.8h49.1
		c22.2,0,40.2-18,40.2-40.2C-362.7,304.7-380.7,286.7-402.9,286.7z"/>
	<path class="st2" d="M-650,310.2c22.2,0,40.2-18,40.2-40.2s-18-40.2-40.2-40.2c-0.4,0-0.8,0-1.2,0c-6.8-19.4-25.3-33.4-47-33.4
		c-25.9,0-47.2,19.8-49.6,45.1c-18.7,0.3-33.7,15.5-33.7,34.3c0,19,15.4,34.3,34.3,34.3L-650,310.2L-650,310.2L-650,310.2z"/>
	<path class="st3" d="M-650,229.8c-0.4,0-0.8,0-1.2,0c-6.7-19.2-24.8-33-46.2-33.3v113.7h47.4c22.2,0,40.2-18,40.2-40.2
		S-627.8,229.8-650,229.8z"/>
	<polygon class="st4" points="-672.5,328.3 -579.1,418.5 -488.6,328.3 	"/>
	<polygon class="st5" points="-579.1,328.3 -579.1,418.5 -488.6,328.3 	"/>
	<polygon class="st6" points="-579.1,137.8 -712.7,343.8 -593.7,343.8 	"/>
	<polygon class="st7" points="-579.1,137.8 -445.5,343.8 -564.4,343.8 	"/>
	<polygon class="st8" points="-579.1,418.5 -551.5,343.8 -579.1,137.8 -606.7,343.8 	"/>
	<polygon class="st4" points="-579.1,137.8 -579.1,418.5 -551.5,343.8 	"/>
</g>
<g>
	<text transform="matrix(1 0 0 1 -573.8216 631.329)" class="st7 st11 st12">Trip</text>
	<text transform="matrix(1 0 0 1 -891.7368 633.303)" class="st3 st11 st13">amz</text>
</g>
<g>
	<linearGradient id="SVGID_3_" gradientUnits="userSpaceOnUse" x1="519.3605" y1="425.0072" x2="697.1502" y2="602.7969">
		<stop  offset="0.3779" style="stop-color:#000000"/>
		<stop  offset="1" style="stop-color:#000000;stop-opacity:0"/>
	</linearGradient>
	<path class="st10" d="M192.8,297.6l428.1,428.1c100.2-20,179.2-98.4,200.2-198.3L594,300.4l-7,4l-36.5-36.7l-19.8,13.2L387.6,137.8
		l-45.7,111.6L192.8,297.6z"/>
	<path class="st2" d="M563.7,367.1c22.2,0,40.2-18,40.2-40.2s-18-40.2-40.2-40.2c-0.4,0-0.8,0-1.2,0c-6.8-19.4-25.3-33.4-47-33.4
		c-25.9,0-47.2,19.8-49.6,45.1c-18.7,0.3-33.7,15.6-33.7,34.3c0,19,15.4,34.3,34.3,34.3L563.7,367.1L563.7,367.1L563.7,367.1z"/>
	<path class="st3" d="M563.7,286.7c-0.4,0-0.8,0-1.2,0c-6.8-19.4-25.3-33.4-47-33.4c-0.3,0-0.6,0-0.9,0v113.8h49.1
		c22.2,0,40.2-18,40.2-40.2C603.9,304.7,585.9,286.7,563.7,286.7z"/>
	<path class="st2" d="M316.6,310.2c22.2,0,40.2-18,40.2-40.2s-18-40.2-40.2-40.2c-0.4,0-0.8,0-1.2,0c-6.8-19.4-25.3-33.4-47-33.4
		c-25.9,0-47.2,19.8-49.6,45.1c-18.7,0.3-33.7,15.5-33.7,34.3c0,19,15.4,34.3,34.3,34.3L316.6,310.2L316.6,310.2L316.6,310.2z"/>
	<path class="st3" d="M316.6,229.8c-0.4,0-0.8,0-1.2,0c-6.7-19.2-24.8-33-46.2-33.3v113.7h47.4c22.2,0,40.2-18,40.2-40.2
		S338.8,229.8,316.6,229.8z"/>
	<polygon class="st4" points="294.2,328.3 387.6,418.5 478.1,328.3 	"/>
	<polygon class="st5" points="387.6,328.3 387.6,418.5 478.1,328.3 	"/>
	<polygon class="st6" points="387.6,137.8 254,343.8 372.9,343.8 	"/>
	<polygon class="st7" points="387.6,137.8 521.2,343.8 402.2,343.8 	"/>
	<polygon class="st8" points="387.6,418.5 415.1,343.8 387.6,137.8 360,343.8 	"/>
	<polygon class="st4" points="387.6,137.8 387.6,418.5 415.1,343.8 	"/>
</g>
<g>
	<text transform="matrix(1 0 0 1 392.8139 631.329)" class="st7 st11 st12">Trip</text>
	<text transform="matrix(1 0 0 1 74.8986 633.303)" class="st3 st11 st13">amz</text>
</g>
<g>
	<linearGradient id="SVGID_4_" gradientUnits="userSpaceOnUse" x1="1500.4586" y1="425.0072" x2="1678.2483" y2="602.7969">
		<stop  offset="0.3779" style="stop-color:#000000"/>
		<stop  offset="1" style="stop-color:#000000;stop-opacity:0"/>
	</linearGradient>
	<path class="st14" d="M1173.9,297.6L1602,725.7c100.2-20,179.2-98.4,200.2-198.3l-227.1-227.1l-7,4l-36.5-36.7l-19.8,13.2
		l-143.1-143.1l-45.7,111.6L1173.9,297.6z"/>
	<path class="st2" d="M1544.8,367.1c22.2,0,40.2-18,40.2-40.2s-18-40.2-40.2-40.2c-0.4,0-0.8,0-1.2,0c-6.8-19.4-25.3-33.4-47-33.4
		c-25.9,0-47.2,19.8-49.6,45.1c-18.7,0.3-33.7,15.6-33.7,34.3c0,19,15.4,34.3,34.3,34.3L1544.8,367.1L1544.8,367.1L1544.8,367.1z"/>
	<path class="st3" d="M1544.8,286.7c-0.4,0-0.8,0-1.2,0c-6.8-19.4-25.3-33.4-47-33.4c-0.3,0-0.6,0-0.9,0v113.8h49.1
		c22.2,0,40.2-18,40.2-40.2C1585,304.7,1567,286.7,1544.8,286.7z"/>
	<path class="st2" d="M1297.7,310.2c22.2,0,40.2-18,40.2-40.2s-18-40.2-40.2-40.2c-0.4,0-0.8,0-1.2,0c-6.8-19.4-25.3-33.4-47-33.4
		c-25.9,0-47.2,19.8-49.6,45.1c-18.7,0.3-33.7,15.5-33.7,34.3c0,19,15.4,34.3,34.3,34.3L1297.7,310.2L1297.7,310.2L1297.7,310.2z"/>
	<path class="st3" d="M1297.7,229.8c-0.4,0-0.8,0-1.2,0c-6.7-19.2-24.8-33-46.2-33.3v113.7h47.4c22.2,0,40.2-18,40.2-40.2
		S1319.9,229.8,1297.7,229.8z"/>
	<polygon class="st4" points="1275.3,328.3 1368.7,418.5 1459.2,328.3 	"/>
	<polygon class="st5" points="1368.7,328.3 1368.7,418.5 1459.2,328.3 	"/>
	<polygon class="st6" points="1368.7,137.8 1235.1,343.8 1354,343.8 	"/>
	<polygon class="st7" points="1368.7,137.8 1502.3,343.8 1383.3,343.8 	"/>
	<polygon class="st8" points="1368.7,418.5 1396.2,343.8 1368.7,137.8 1341.1,343.8 	"/>
	<polygon class="st4" points="1368.7,137.8 1368.7,418.5 1396.2,343.8 	"/>
</g>
<g>
	<text transform="matrix(1 0 0 1 1373.912 631.329)" class="st4 st11 st12">Trip</text>
	<text transform="matrix(1 0 0 1 1055.9967 633.303)" class="st3 st11 st13">amz</text>
</g>
</svg>
